<svg xmlns="http://www.w3.org/2000/svg" width="620" height="492" viewBox="0 0 620 492"><rect width="100%" height="100%" fill="#DDDDDD"/><path fill="#999999" d="m162.775 216.35-17.59 21.53-2.05 2.54q1.72-.86 3.71-1.33 1.99-.47 4.28-.47 3.36 0 6.54 1.1 3.18 1.11 5.6 3.35 2.42 2.23 3.89 5.55 1.48 3.32 1.48 7.75 0 4.14-1.52 7.77t-4.26 6.33q-2.75 2.71-6.62 4.27-3.88 1.56-8.55 1.56-4.76 0-8.53-1.52-3.77-1.52-6.44-4.24-2.66-2.73-4.08-6.56-1.41-3.84-1.41-8.51 0-4.18 1.7-8.59t5.27-9.17l14.14-18.98q.74-.98 2.16-1.68 1.41-.7 3.26-.7h9.02Zm-15.3 51.66q2.42 0 4.45-.82 2.03-.82 3.49-2.29 1.45-1.48 2.27-3.47.82-1.99.82-4.32 0-2.54-.78-4.57-.78-2.03-2.21-3.45-1.44-1.41-3.45-2.15-2-.74-4.42-.74t-4.39.82q-1.97.82-3.36 2.28-1.4 1.45-2.18 3.44-.77 1.99-.77 4.29 0 2.46.67 4.49.68 2.02 2.01 3.46 1.33 1.44 3.3 2.23 1.97.8 4.55.8Zm48.87-1.8h15.22q1.64 0 2.6.92.96.93.96 2.44v6.07h-40.67v-3.36q0-1.03.43-2.15.43-1.13 1.37-2.03l18-18.04q2.26-2.3 4.04-4.39 1.79-2.09 2.97-4.14 1.19-2.05 1.83-4.16.63-2.12.63-4.45 0-2.13-.61-3.75-.62-1.62-1.74-2.73-1.13-1.11-2.71-1.66-1.58-.55-3.55-.55-1.8 0-3.34.51-1.53.51-2.72 1.43-1.19.93-2.01 2.16-.82 1.23-1.23 2.7-.7 1.89-1.81 2.5-1.1.62-3.19.29l-5.34-.94q.62-4.27 2.38-7.49 1.77-3.21 4.41-5.37 2.65-2.15 6.07-3.24 3.42-1.08 7.36-1.08 4.1 0 7.5 1.21 3.4 1.21 5.82 3.42 2.42 2.22 3.77 5.33 1.36 3.12 1.36 6.93 0 3.28-.97 6.07-.96 2.79-2.58 5.33t-3.79 4.92q-2.17 2.38-4.55 4.84l-13.37 13.65q1.93-.57 3.84-.88 1.9-.31 3.62-.31Zm68.06-20.21q0 7.75-1.66 13.47-1.66 5.71-4.59 9.45-2.93 3.73-6.93 5.55-3.99 1.83-8.63 1.83-4.63 0-8.59-1.83-3.95-1.82-6.86-5.55-2.92-3.74-4.56-9.45-1.64-5.72-1.64-13.47 0-7.79 1.64-13.49t4.56-9.43q2.91-3.73 6.86-5.56 3.96-1.82 8.59-1.82 4.64 0 8.63 1.82 4 1.83 6.93 5.56 2.93 3.73 4.59 9.43 1.66 5.7 1.66 13.49Zm-10.45 0q0-6.44-.94-10.66-.95-4.23-2.53-6.73-1.57-2.5-3.62-3.5-2.05-1.01-4.27-1.01-2.17 0-4.2 1.01-2.03 1-3.59 3.5t-2.48 6.73q-.92 4.22-.92 10.66 0 6.43.92 10.66.92 4.22 2.48 6.72t3.59 3.51q2.03 1 4.2 1 2.22 0 4.27-1 2.05-1.01 3.62-3.51 1.58-2.5 2.53-6.72.94-4.23.94-10.66Zm75.56 16.07-5.37 5.29-13.9-13.9-14.02 13.98-5.37-5.29 14.02-14.06-13.36-13.37 5.33-5.33 13.36 13.37 13.29-13.29 5.41 5.33-13.33 13.33 13.94 13.94Zm35.51-8.78h18.04V233.9q0-2.74.37-6.07l-18.41 25.46Zm26.85 0h7.47v5.87q0 .82-.54 1.41-.53.6-1.51.6h-5.42v14.47h-8.81v-14.47h-25.01q-1.03 0-1.81-.64-.77-.63-.98-1.58l-1.07-5.12 28.09-37.52h9.59v36.98Zm23.09-19.14q0 4.96 2.56 7.56 2.56 2.61 7.28 2.61 2.46 0 4.38-.78 1.93-.78 3.24-2.13 1.31-1.36 1.99-3.2.68-1.85.68-3.98 0-2.42-.74-4.33-.74-1.9-2.09-3.21-1.35-1.32-3.22-2.01-1.87-.7-4.08-.7-2.3 0-4.14.76-1.85.76-3.16 2.11-1.31 1.35-2.01 3.22-.69 1.86-.69 4.08Zm-4.96 41.49 18.4-23q.7-.86 1.32-1.68.61-.82 1.19-1.64-2.05 1.31-4.51 1.99-2.46.67-5.17.67-3.08 0-6.03-1.06-2.95-1.07-5.25-3.22-2.29-2.15-3.71-5.33-1.41-3.18-1.41-7.44 0-3.98 1.48-7.47 1.47-3.48 4.14-6.1 2.66-2.63 6.39-4.15 3.73-1.51 8.24-1.51 4.55 0 8.18 1.43 3.63 1.44 6.19 4.02 2.57 2.58 3.94 6.19 1.37 3.61 1.37 7.91 0 2.75-.47 5.21t-1.33 4.74q-.86 2.27-2.09 4.45-1.23 2.17-2.75 4.3l-13.57 19.35q-.7.99-2.09 1.66-1.39.68-3.16.68h-9.3Zm64-9.43h15.21q1.64 0 2.6.92.96.93.96 2.44v6.07h-40.67v-3.36q0-1.03.43-2.15.43-1.13 1.38-2.03l18-18.04q2.25-2.3 4.03-4.39 1.79-2.09 2.98-4.14t1.82-4.16q.64-2.12.64-4.45 0-2.13-.62-3.75-.61-1.62-1.74-2.73-1.13-1.11-2.71-1.66-1.58-.55-3.54-.55-1.81 0-3.35.51-1.53.51-2.72 1.43-1.19.93-2.01 2.16-.82 1.23-1.23 2.7-.7 1.89-1.8 2.5-1.11.62-3.2.29l-5.33-.94q.61-4.27 2.38-7.49 1.76-3.21 4.4-5.37 2.65-2.15 6.07-3.24 3.42-1.08 7.36-1.08 4.1 0 7.5 1.21 3.41 1.21 5.83 3.42 2.41 2.22 3.77 5.33 1.35 3.12 1.35 6.93 0 3.28-.96 6.07-.97 2.79-2.59 5.33-1.62 2.54-3.79 4.92t-4.55 4.84l-13.37 13.65q1.93-.57 3.84-.88 1.9-.31 3.63-.31Z"/></svg>