<svg xmlns="http://www.w3.org/2000/svg" width="492" height="436" viewBox="0 0 492 436"><rect width="100%" height="100%" fill="#DDDDDD"/><path fill="#999999" d="M108.035 223.79h14.3v-15.38q0-2.17.3-4.81l-14.6 20.19Zm21.29 0h5.92v4.64q0 .65-.43 1.13-.42.47-1.2.47h-4.29v11.47h-6.99v-11.47h-19.82q-.81 0-1.43-.51-.62-.5-.78-1.25l-.85-4.06 22.27-29.74h7.6v29.32Zm18.3-15.18q0 3.93 2.03 6 2.03 2.06 5.77 2.06 1.95 0 3.48-.62 1.52-.62 2.57-1.69 1.03-1.07 1.57-2.53.54-1.47.54-3.16 0-1.91-.59-3.42-.58-1.52-1.66-2.55-1.07-1.04-2.55-1.6-1.48-.55-3.23-.55-1.82 0-3.28.6-1.47.6-2.5 1.67-1.05 1.08-1.6 2.56-.55 1.47-.55 3.23Zm-3.93 32.89 14.59-18.23q.55-.68 1.04-1.34.49-.64.94-1.3-1.62 1.05-3.57 1.58-1.95.54-4.1.54-2.43 0-4.78-.85-2.34-.84-4.15-2.55-1.83-1.71-2.95-4.22-1.12-2.52-1.12-5.9 0-3.16 1.17-5.92t3.29-4.84q2.11-2.08 5.06-3.28 2.96-1.21 6.54-1.21 3.6 0 6.48 1.14 2.88 1.14 4.91 3.19 2.03 2.04 3.12 4.9 1.09 2.86 1.09 6.28 0 2.17-.38 4.12-.37 1.95-1.05 3.76-.69 1.8-1.66 3.52-.97 1.73-2.18 3.42l-10.76 15.34q-.55.78-1.65 1.31-1.11.54-2.51.54h-7.37Zm50.73-7.48h12.06q1.3 0 2.06.74.77.73.77 1.93v4.81h-32.25v-2.67q0-.81.35-1.7.34-.9 1.09-1.61l14.26-14.3q1.79-1.82 3.2-3.48 1.42-1.65 2.36-3.28t1.45-3.3q.5-1.67.5-3.53 0-1.68-.49-2.97-.48-1.28-1.38-2.16-.89-.88-2.14-1.32-1.26-.44-2.81-.44-1.43 0-2.65.41t-2.16 1.14q-.95.73-1.6 1.7-.65.98-.97 2.15-.55 1.49-1.43 1.98-.88.49-2.54.23l-4.22-.75q.48-3.38 1.88-5.93t3.5-4.26q2.09-1.7 4.81-2.56 2.71-.87 5.83-.87 3.25 0 5.95.96t4.61 2.72q1.92 1.75 2.99 4.22 1.08 2.47 1.08 5.49 0 2.6-.77 4.81-.76 2.21-2.05 4.23-1.28 2.02-3 3.9-1.72 1.89-3.61 3.83l-10.6 10.83q1.53-.46 3.04-.7 1.52-.25 2.88-.25Zm67.86-3.28-4.26 4.19-11.01-11.01-11.12 11.08-4.26-4.19 11.12-11.15-10.6-10.6 4.23-4.22 10.59 10.59 10.53-10.52 4.29 4.22-10.56 10.56 11.05 11.05Zm28.15-6.95h14.3v-15.38q0-2.17.29-4.81l-14.59 20.19Zm21.28 0h5.92v4.64q0 .65-.42 1.13-.43.47-1.21.47h-4.29v11.47h-6.98v-11.47h-19.83q-.81 0-1.43-.51-.62-.5-.78-1.25l-.84-4.06 22.26-29.74h7.6v29.32Zm15.31-15.44-4.22-.75q.48-3.38 1.88-5.93t3.49-4.26q2.1-1.7 4.81-2.56 2.72-.87 5.84-.87 3.25 0 5.86.93 2.62.93 4.47 2.57 1.86 1.64 2.85 3.85t.99 4.78q0 2.24-.51 3.95-.5 1.7-1.44 2.97-.94 1.27-2.34 2.15-1.4.87-3.15 1.46 4.22 1.33 6.3 4.06 2.08 2.73 2.08 6.86 0 3.51-1.3 6.2-1.3 2.7-3.51 4.54-2.21 1.84-5.12 2.78-2.91.94-6.16.94-3.54 0-6.17-.81t-4.58-2.41q-1.95-1.59-3.32-3.9-1.36-2.31-2.34-5.33l3.54-1.46q1.4-.58 2.62-.31 1.22.28 1.77 1.32.59 1.13 1.28 2.24.7 1.1 1.68 1.97.97.86 2.29 1.39 1.32.54 3.14.54 2.04 0 3.57-.67 1.53-.66 2.55-1.73 1.03-1.08 1.53-2.39.5-1.32.5-2.65 0-1.69-.35-3.07-.36-1.39-1.5-2.36-1.14-.98-3.27-1.53-2.12-.55-5.7-.55v-5.72q2.96-.03 4.91-.55 1.95-.52 3.1-1.45 1.16-.93 1.61-2.23.46-1.3.46-2.86 0-3.31-1.86-5.03-1.85-1.73-4.94-1.73-1.43 0-2.63.41t-2.16 1.14q-.96.73-1.61 1.7-.65.98-.97 2.15-.56 1.49-1.45 1.98-.89.49-2.52.23Zm60.87-13.85-13.94 17.07-1.62 2.01q1.36-.68 2.94-1.05 1.57-.38 3.39-.38 2.67 0 5.19.88 2.52.88 4.43 2.65 1.92 1.77 3.09 4.4 1.17 2.63 1.17 6.14 0 3.29-1.2 6.16-1.2 2.88-3.38 5.03-2.18 2.14-5.25 3.37-3.07 1.24-6.78 1.24-3.77 0-6.76-1.2-2.99-1.21-5.1-3.37-2.11-2.16-3.23-5.2t-1.12-6.74q0-3.31 1.34-6.81 1.35-3.49 4.18-7.26l11.21-15.05q.59-.78 1.71-1.33 1.12-.56 2.58-.56h7.15Zm-12.12 40.96q1.92 0 3.53-.66 1.61-.65 2.76-1.82 1.15-1.17 1.8-2.74.65-1.58.65-3.43 0-2.02-.61-3.62-.62-1.61-1.76-2.73-1.14-1.12-2.73-1.71-1.59-.59-3.51-.59-1.92 0-3.48.65t-2.66 1.81q-1.11 1.15-1.72 2.73-.62 1.58-.62 3.39 0 1.96.53 3.56.54 1.61 1.6 2.75 1.05 1.14 2.61 1.77 1.56.64 3.61.64Z"/></svg>