<svg xmlns="http://www.w3.org/2000/svg" width="68" height="68" viewBox="0 0 68 68" fill="none">
  <g clip-path="url(#clip0_2_435)">
    <path d="M16.7037 20.4402C7.51037 20.4402 0.0310211 27.9195 0.0310211 37.1128C0.0310211 42.8207 2.74625 48.9578 8.10139 55.3535C8.89707 56.3038 9.68996 57.1843 10.4508 57.9877C6.9932 58.9315 4.9172 60.6271 4.9172 62.6061C4.9172 66.1096 10.9897 68 16.7031 68C22.4167 68 28.4891 66.1095 28.4891 62.6061C28.4891 60.6287 26.4137 58.9327 22.9584 57.9885C24.3388 56.5311 25.8242 54.8165 27.2336 52.904C27.5603 52.4606 27.4658 51.8365 27.0224 51.5097C26.5794 51.1834 25.9549 51.2777 25.6282 51.7211C23.9266 54.0303 22.0847 56.0597 20.4775 57.6716C20.2933 57.7656 20.1393 57.9149 20.0427 58.1031C18.603 59.518 17.3915 60.5676 16.7041 61.1411C16.0242 60.5732 14.8311 59.5378 13.4099 58.1414C13.3079 57.9178 13.1287 57.7425 12.9101 57.6448C8.39358 53.1019 2.0252 45.2532 2.0252 37.1131C2.0252 29.0195 8.60993 22.4348 16.7035 22.4348C24.7971 22.4348 31.3819 29.0195 31.3819 37.1131C31.3819 40.6477 30.1775 44.4647 27.8023 48.4582C27.5209 48.9317 27.6763 49.5436 28.1496 49.825C28.623 50.1064 29.235 49.9511 29.5164 49.4777C32.0775 45.1714 33.3762 41.0114 33.3762 37.1131C33.3763 27.9195 25.897 20.4402 16.7037 20.4402ZM16.0934 63.2151C16.273 63.3541 16.4884 63.4236 16.7037 63.4236C16.919 63.4236 17.1343 63.3541 17.3139 63.2151C17.4363 63.1204 19.1025 61.8209 21.3236 59.6493C24.6866 60.3352 26.495 61.6557 26.495 62.6063C26.495 63.3161 25.522 64.1537 23.9558 64.7918C22.0348 65.5748 19.4591 66.006 16.7033 66.006C10.7259 66.006 6.91152 63.9923 6.91152 62.6063C6.91152 61.6544 8.72043 60.3345 12.0854 59.6486C14.3188 61.8332 15.9874 63.133 16.0934 63.2151Z" fill="#FE5B38"/>
    <path d="M16.7036 29.8635C15.1264 29.8635 13.6267 30.3614 12.3666 31.3035C11.9256 31.6333 11.8353 32.2581 12.165 32.6992C12.4949 33.1401 13.1198 33.2303 13.5607 32.9008C14.4733 32.2186 15.5601 31.8578 16.7034 31.8578C19.601 31.8578 21.9583 34.2151 21.9583 37.1128C21.9583 40.0104 19.601 42.3677 16.7034 42.3677C13.8059 42.3677 11.4486 40.0103 11.4486 37.1128C11.4486 36.6184 11.517 36.1295 11.6518 35.6601C11.8037 35.1309 11.4979 34.5786 10.9686 34.4266C10.4395 34.2752 9.8871 34.5806 9.73503 35.1099C9.54896 35.7584 9.45453 36.4322 9.45453 37.1128C9.45453 41.11 12.7064 44.362 16.7037 44.362C20.7008 44.362 23.9529 41.1101 23.9529 37.1128C23.9528 33.1156 20.7007 29.8635 16.7036 29.8635Z" fill="#FE5B38"/>
    <path d="M60.1587 28.9693C60.666 28.4249 61.1886 27.8384 61.7127 27.2123C65.8642 22.254 67.9691 17.4875 67.9691 13.0447C67.9691 5.852 62.1173 0 54.9244 0C49.6699 0 44.952 3.12721 42.9052 7.96691C42.6906 8.47412 42.928 9.05929 43.435 9.27365C43.9421 9.48801 44.5274 9.25094 44.7418 8.74386C46.476 4.64367 50.4729 1.99418 54.9244 1.99418C61.0177 1.99418 65.975 6.95155 65.975 13.0449C65.975 21.285 57.3238 29.1795 54.924 31.2103C54.3951 30.7634 53.5627 30.0319 52.5866 29.0751C52.4893 28.8821 52.332 28.7291 52.1432 28.6344C48.7003 25.1679 43.8738 19.209 43.8738 13.0449C43.8738 12.4941 43.4276 12.0477 42.8767 12.0477C42.326 12.0477 41.8795 12.4941 41.8795 13.0449C41.8795 17.4875 43.9845 22.254 48.1361 27.2124C48.66 27.8381 49.1822 28.4243 49.6893 28.9686C47.1189 29.7409 45.6349 31.0555 45.6349 32.6385C45.6349 33.9735 46.7179 35.1501 48.6846 35.9514C50.3673 36.6371 52.5833 37.0148 54.9243 37.0148C57.2651 37.0148 59.4811 36.6371 61.1639 35.9514C63.1302 35.15 64.2132 33.9734 64.2132 32.6383C64.2131 31.0583 62.7281 29.7425 60.1587 28.9693ZM54.9241 35.0203C50.2041 35.0203 47.6293 33.4468 47.6293 32.6382C47.6293 32.1115 48.8005 31.1475 51.3017 30.6157C52.9845 32.2532 54.2336 33.2262 54.3143 33.2887C54.494 33.4278 54.7092 33.4972 54.9245 33.4972C55.1398 33.4972 55.355 33.4278 55.5348 33.2887C55.6154 33.2264 56.8643 32.2533 58.5471 30.616C59.6614 30.8536 60.6267 31.2017 61.3022 31.6129C61.8764 31.9627 62.2191 32.346 62.2191 32.6382C62.2189 33.4468 59.644 35.0203 54.9241 35.0203Z" fill="#FE5B38"/>
    <path d="M54.9244 7.24255C51.7251 7.24255 49.1221 9.84542 49.1221 13.045C49.1221 16.2443 51.725 18.8472 54.9244 18.8472C58.1239 18.8472 60.7267 16.2445 60.7267 13.045C60.7267 9.84555 58.1239 7.24255 54.9244 7.24255ZM54.9246 16.8529C52.8245 16.8529 51.1164 15.1446 51.1164 13.0449C51.1164 10.9451 52.8247 9.23674 54.9246 9.23674C57.0243 9.23674 58.7327 10.945 58.7327 13.0449C58.7326 15.1446 57.0243 16.8529 54.9246 16.8529Z" fill="#FE5B38"/>
    <path d="M41.9897 31.6412H41.5344C41.2029 31.6412 40.8699 31.6632 40.5439 31.7066C39.9982 31.7792 39.6145 32.2805 39.687 32.8266C39.7538 33.328 40.182 33.6924 40.6742 33.6924C40.718 33.6924 40.7624 33.6896 40.807 33.6836C41.046 33.6519 41.2907 33.6358 41.5346 33.6358H41.9897V33.6357C42.5405 33.6357 42.9869 33.1894 42.9869 32.6385C42.9869 32.0876 42.5405 31.6412 41.9897 31.6412Z" fill="#FE5B38"/>
    <path d="M38.6932 61.5582C38.6916 61.5582 38.6901 61.5582 38.6885 61.5582L37.3716 61.5642C36.8209 61.5667 36.3765 62.0152 36.3789 62.5659C36.3813 63.1151 36.8274 63.5585 37.376 63.5585C37.3775 63.5585 37.379 63.5585 37.3806 63.5585L38.6976 63.5525C39.2482 63.55 39.6926 63.1015 39.6902 62.5509C39.6878 62.0016 39.2418 61.5582 38.6932 61.5582Z" fill="#FE5B38"/>
    <path d="M43.1728 44.5573H41.8559C41.3051 44.5573 40.8587 45.0038 40.8587 45.5544C40.8587 46.1052 41.305 46.5516 41.8559 46.5516H43.1728C43.7236 46.5516 44.17 46.1053 44.17 45.5544C44.17 45.0038 43.7237 44.5573 43.1728 44.5573Z" fill="#FE5B38"/>
    <path d="M37.8893 33.6728C37.516 33.2683 36.8854 33.2428 36.4803 33.616C36.1086 33.9588 35.7704 34.3409 35.4753 34.7518C35.1541 35.1993 35.2563 35.8223 35.7036 36.1436C35.8796 36.27 36.0831 36.3308 36.2846 36.3308C36.5947 36.3308 36.9004 36.1865 37.0952 35.9153C37.3117 35.6139 37.5598 35.3334 37.8325 35.0818C38.2373 34.7085 38.2627 34.0776 37.8893 33.6728Z" fill="#FE5B38"/>
    <path d="M43.9613 61.5341C43.9597 61.5341 43.9583 61.5341 43.9567 61.5341L42.6399 61.54C42.0892 61.5424 41.6448 61.9911 41.6472 62.5417C41.6496 63.0909 42.0957 63.5344 42.6442 63.5344C42.6458 63.5344 42.6473 63.5344 42.6489 63.5344L43.9657 63.5284C44.5164 63.526 44.9608 63.0773 44.9584 62.5267C44.9558 61.9775 44.5099 61.5341 43.9613 61.5341Z" fill="#FE5B38"/>
    <path d="M33.4252 61.5819C33.4236 61.5819 33.4221 61.5819 33.4206 61.5819L32.1036 61.5879C31.5529 61.5904 31.1085 62.0389 31.1109 62.5896C31.1134 63.1387 31.5592 63.5822 32.108 63.5822C32.1096 63.5822 32.111 63.5822 32.1126 63.5822L33.4296 63.5762C33.9802 63.5737 34.4246 63.1252 34.4222 62.5746C34.4198 62.0252 33.9739 61.5819 33.4252 61.5819Z" fill="#FE5B38"/>
    <path d="M38.6258 43.719C38.3125 43.5214 38.0178 43.2906 37.7502 43.0333C37.3532 42.6515 36.7218 42.6641 36.3402 43.0607C35.9584 43.4575 35.9707 44.0888 36.3676 44.4705C36.7326 44.8215 37.1343 45.1361 37.5617 45.4057C37.7269 45.51 37.9109 45.5596 38.0928 45.5596C38.4238 45.5596 38.7475 45.3951 38.9372 45.0943C39.2312 44.6286 39.0916 44.0128 38.6258 43.719Z" fill="#FE5B38"/>
    <path d="M36.1747 40.1475C36.1077 39.8038 36.0737 39.4503 36.0737 39.0964L36.074 39.0411C36.0805 38.4904 35.6393 38.0389 35.0885 38.0325C35.0847 38.0323 35.0807 38.0323 35.0767 38.0323C34.5314 38.0323 34.0862 38.4712 34.0798 39.018L34.0794 39.0966C34.0794 39.5782 34.1258 40.0601 34.2171 40.5291C34.3098 41.0052 34.7271 41.3355 35.1948 41.3355C35.2579 41.3355 35.3221 41.3296 35.3864 41.3169C35.9271 41.2116 36.2799 40.6881 36.1747 40.1475Z" fill="#FE5B38"/>
    <path d="M48.4411 44.5573H47.1241C46.5734 44.5573 46.127 45.0038 46.127 45.5544C46.127 46.1052 46.5734 46.5516 47.1241 46.5516H48.4411C48.9919 46.5516 49.4383 46.1053 49.4383 45.5544C49.4383 45.0038 48.9919 44.5573 48.4411 44.5573Z" fill="#FE5B38"/>
    <path d="M64.4506 46.5874C64.0664 46.2842 63.6558 46.0087 63.2298 45.769C62.7505 45.4986 62.1421 45.6685 61.8717 46.1483C61.6014 46.628 61.7712 47.2363 62.251 47.5064C62.587 47.696 62.9113 47.9132 63.2146 48.1527C63.3978 48.2973 63.6154 48.3673 63.8319 48.3673C64.1264 48.3673 64.4184 48.2372 64.6152 47.988C64.9565 47.5557 64.8829 46.9286 64.4506 46.5874Z" fill="#FE5B38"/>
    <path d="M60.7492 62.2485C60.6735 61.7031 60.1693 61.3212 59.6249 61.3972C59.2983 61.4424 58.9639 61.4661 58.6304 61.4675L58.4438 61.4684C57.8931 61.4712 57.4488 61.9198 57.4515 62.4703C57.4542 63.0194 57.9001 63.4627 58.4485 63.4627C58.4502 63.4627 58.4518 63.4627 58.4534 63.4627L58.6396 63.4618C59.0607 63.4599 59.4841 63.43 59.8978 63.3728C60.4436 63.2974 60.8246 62.7939 60.7492 62.2485Z" fill="#FE5B38"/>
    <path d="M65.15 59.4444C64.7701 59.0455 64.1388 59.0302 63.7404 59.4102C63.4605 59.6767 63.1577 59.9235 62.8402 60.1437C62.3877 60.4574 62.2752 61.0787 62.5887 61.5314C62.7825 61.8107 63.0932 61.9606 63.4091 61.9606C63.6052 61.9606 63.803 61.9029 63.9764 61.7829C64.3783 61.5041 64.7617 61.1917 65.1159 60.8542C65.5147 60.4743 65.5299 59.843 65.15 59.4444Z" fill="#FE5B38"/>
    <path d="M67.0905 54.6017C66.5501 54.4999 66.0282 54.8558 65.9262 55.397C65.8546 55.7765 65.7529 56.153 65.6234 56.5164C65.4385 57.035 65.709 57.6054 66.2278 57.7904C66.3384 57.8299 66.4516 57.8486 66.5628 57.8486C66.9723 57.8486 67.3564 57.5941 67.502 57.1861C67.6663 56.7253 67.7955 56.2476 67.8862 55.7661C67.9878 55.2249 67.6316 54.7035 67.0905 54.6017Z" fill="#FE5B38"/>
    <path d="M67.6831 51.3964C67.5479 50.9256 67.3745 50.4618 67.167 50.0173C66.934 49.5182 66.3412 49.3025 65.8416 49.5352C65.3427 49.7682 65.1268 50.3614 65.3597 50.8605C65.523 51.2105 65.6598 51.576 65.7662 51.9466C65.8917 52.3839 66.2907 52.6689 66.7242 52.6689C66.8154 52.6689 66.9079 52.6563 66.9998 52.63C67.529 52.4779 67.8349 51.9257 67.6831 51.3964Z" fill="#FE5B38"/>
    <path d="M53.7093 44.5573H52.3923C51.8415 44.5573 51.3951 45.0038 51.3951 45.5544C51.3951 46.1052 51.8414 46.5516 52.3923 46.5516H53.7093C54.26 46.5516 54.7064 46.1053 54.7064 45.5544C54.7064 45.0038 54.26 44.5573 53.7093 44.5573Z" fill="#FE5B38"/>
    <path d="M49.2295 61.5101C49.2279 61.5101 49.2264 61.5101 49.2248 61.5101L47.9078 61.5161C47.3572 61.5185 46.9128 61.9671 46.9152 62.5178C46.9177 63.067 47.3637 63.5104 47.9122 63.5104C47.9138 63.5104 47.9153 63.5104 47.9169 63.5104L49.2338 63.5044C49.7845 63.5019 50.2289 63.0534 50.2265 62.5028C50.2241 61.9536 49.778 61.5101 49.2295 61.5101Z" fill="#FE5B38"/>
    <path d="M59.0212 44.5668C58.8802 44.5604 58.7373 44.5574 58.5968 44.5574H57.6603C57.1095 44.5574 56.6631 45.0039 56.6631 45.5545C56.6631 46.1053 57.1094 46.5517 57.6603 46.5517H58.5968V46.5516C58.7095 46.5516 58.8216 46.5541 58.933 46.559C58.948 46.5598 58.9631 46.5601 58.9779 46.5601C59.5082 46.5601 59.9497 46.1422 59.9732 45.6071C59.9975 45.0568 59.5713 44.5911 59.0212 44.5668Z" fill="#FE5B38"/>
    <path d="M54.4974 61.4863C54.4958 61.4863 54.4944 61.4863 54.4928 61.4863L53.1758 61.4923C52.6252 61.4947 52.1808 61.9433 52.1832 62.494C52.1857 63.0432 52.6317 63.4866 53.1802 63.4866C53.1818 63.4866 53.1834 63.4866 53.1849 63.4866L54.5018 63.4806C55.0525 63.4781 55.4968 63.0296 55.4945 62.479C55.4921 61.9297 55.0461 61.4863 54.4974 61.4863Z" fill="#FE5B38"/>
  </g>
  <defs>
    <clipPath id="clip0_2_435">
      <rect width="68" height="68" fill="white"/>
    </clipPath>
  </defs>
</svg>