<svg width="170" height="178" viewBox="0 0 170 178" fill="none" xmlns="http://www.w3.org/2000/svg">
<g id="mail 1" clip-path="url(#clip0_2_365)">
<g id="Group">
<g id="Group_2">
<path id="Vector" d="M166.287 35.4315L46.9334 5.38112C46.2998 5.22159 45.6135 5.31555 45.0845 5.69854C43.9283 6.53572 43.9428 8.14952 44.8874 9.01298L68.9515 31.0118C68.9539 31.0139 68.9552 31.0171 68.9549 31.0206L64.5575 75.8616C64.4126 77.4171 65.9971 78.6321 67.4611 78.0632L99.512 65.591C99.5156 65.5895 99.5198 65.5903 99.5229 65.5931L116.121 81.0403C116.913 81.7766 118.167 81.7972 118.982 81.0874L146.572 57.0676C147.463 56.2921 147.556 54.9411 146.78 54.0503C146.005 53.1593 144.654 53.0664 143.763 53.8418L117.633 76.5919C117.629 76.5953 117.623 76.5952 117.619 76.5916L84.5174 45.7858C84.5107 45.7798 84.5147 45.7687 84.5237 45.7678L159.488 40.1274C159.497 40.1266 159.502 40.139 159.495 40.1454L151.686 46.9437C150.798 47.7166 150.617 49.0778 151.367 49.9845C152.137 50.9143 153.515 51.0218 154.42 50.2348L167.185 39.122C167.264 39.052 167.34 38.9735 167.409 38.8919C168.427 37.6949 167.797 35.8118 166.287 35.4315ZM96.0286 62.3411C96.0341 62.3463 96.0323 62.3558 96.0252 62.3584L70.5143 72.2854C70.5058 72.2885 70.4976 72.2803 70.501 72.2718L80.2879 47.7115C80.2905 47.7048 80.2992 47.7029 80.3047 47.7078L96.0286 62.3411ZM137.598 37.4851L79.3031 41.8713C78.499 41.933 77.7757 42.4621 77.4768 43.2121L70.314 61.1867C70.3094 61.1979 70.2929 61.1937 70.2941 61.182L73.1107 32.4634C73.1113 32.4576 73.1161 32.4536 73.1219 32.4541L137.598 37.4643C137.611 37.4652 137.611 37.4839 137.598 37.4851ZM140.667 33.4127L72.0911 28.084C72.0889 28.0837 72.0867 28.0829 72.0851 28.0813L54.0638 11.6072C54.056 11.5999 54.0628 11.5867 54.0733 11.5893L140.67 33.3924C140.683 33.3955 140.679 33.4138 140.667 33.4127Z" fill="#FE5B38"/>
</g>
</g>
<g id="Group_3">
<g id="Group_4">
<path id="Vector_2" d="M45.7467 93.3394C45.1628 93.2015 44.5644 93.0761 43.9684 92.9665C42.8068 92.7527 41.6919 93.5208 41.4778 94.6823C41.2722 95.7976 41.9726 96.8701 43.0568 97.1431C43.1018 97.1544 43.1474 97.1644 43.1937 97.1729C43.7206 97.27 44.2491 97.3808 44.7646 97.5024C45.9141 97.7736 47.0659 97.0615 47.337 95.9122C47.6082 94.763 46.8923 93.6029 45.7467 93.3394Z" fill="#FE5B38"/>
</g>
</g>
<g id="Group_5">
<g id="Group_6">
<path id="Vector_3" d="M55.5699 97.3674C54.5824 96.7475 53.5263 96.1718 52.4313 95.656C51.3638 95.1522 50.089 95.6106 49.5854 96.6793C49.082 97.7475 49.5402 99.022 50.6087 99.5255C51.5491 99.9686 52.4535 100.462 53.2964 100.99C54.2843 101.61 55.6248 101.303 56.2445 100.316C56.8721 99.3151 56.5698 97.995 55.5699 97.3674Z" fill="#FE5B38"/>
</g>
</g>
<g id="Group_7">
<g id="Group_8">
<path id="Vector_4" d="M29.1458 111.124C29.2219 110.138 29.3736 109.139 29.5972 108.155C29.859 107.004 29.1343 105.859 27.9858 105.596C26.8342 105.334 25.6883 106.056 25.4265 107.208C25.1567 108.394 24.9734 109.602 24.8814 110.796C24.7918 111.957 25.6869 113.003 26.8493 113.092C28.0271 113.183 29.0551 112.302 29.1458 111.124Z" fill="#FE5B38"/>
</g>
</g>
<g id="Group_9">
<g id="Group_10">
<path id="Vector_5" d="M36.0382 126.479C35.24 125.947 34.4885 125.331 33.8049 124.646C32.97 123.81 31.6163 123.809 30.7803 124.644C29.9448 125.478 29.9437 126.832 30.7782 127.668C31.6621 128.553 32.6336 129.35 33.6675 130.039C34.6899 130.719 36.1139 130.376 36.7161 129.308C37.2589 128.346 36.9569 127.091 36.0382 126.479Z" fill="#FE5B38"/>
</g>
</g>
<g id="Group_11">
<g id="Group_12">
<path id="Vector_6" d="M49.1731 85.6802C48.687 84.6038 47.42 84.1254 46.344 84.6113C45.2882 85.0879 44.2385 85.6127 43.2244 86.1717C42.1898 86.7414 41.8131 88.0418 42.3825 89.0764C42.944 90.0967 44.2663 90.4801 45.287 89.918C46.2027 89.4138 47.1508 88.9397 48.1042 88.5095C49.1807 88.0232 49.6591 86.7568 49.1731 85.6802Z" fill="#FE5B38"/>
</g>
</g>
<g id="Group_13">
<g id="Group_14">
<path id="Vector_7" d="M30.5524 119.836C30.1638 118.946 29.8471 118.005 29.6112 117.041C29.3304 115.894 28.1723 115.192 27.0256 115.473C25.8785 115.754 25.1762 116.911 25.457 118.058C25.7509 119.26 26.1467 120.433 26.6328 121.547C27.1356 122.699 28.5708 123.171 29.6613 122.544C30.593 122.008 30.9824 120.82 30.5524 119.836Z" fill="#FE5B38"/>
</g>
</g>
<g id="Group_15">
<g id="Group_16">
<path id="Vector_8" d="M32.9883 97.0234C32.0477 96.3092 30.7062 96.4929 29.9919 97.4334C29.2045 98.47 28.5122 99.5111 27.9891 100.443C27.4111 101.473 27.7775 102.777 28.8072 103.355C28.9761 103.45 29.1529 103.519 29.3325 103.564C30.2459 103.794 31.2357 103.397 31.7182 102.536C32.0172 102.004 32.5511 101.135 33.3981 100.019C34.1126 99.0789 33.9292 97.7375 32.9883 97.0234Z" fill="#FE5B38"/>
</g>
</g>
<g id="Group_17">
<g id="Group_18">
<path id="Vector_9" d="M40.4032 90.3798C39.6768 89.4478 38.3334 89.2812 37.402 90.0074C36.4842 90.7224 35.5868 91.4813 34.7356 92.2629C33.8652 93.0615 33.8072 94.4143 34.6058 95.2844C35.3942 96.1438 36.7688 96.2017 37.6273 95.4143C38.3944 94.7103 39.2031 94.0263 40.0306 93.3816C40.9624 92.6554 41.1291 91.3114 40.4032 90.3798Z" fill="#FE5B38"/>
</g>
</g>
<g id="Group_19">
<g id="Group_20">
<path id="Vector_10" d="M63.2645 105.089C62.663 104.039 61.9367 103.018 61.1058 102.055C60.3348 101.16 58.9845 101.06 58.0898 101.832C57.1954 102.603 57.0958 103.954 57.8671 104.848C58.5199 105.605 59.0871 106.401 59.5528 107.215C60.1322 108.226 61.4599 108.587 62.4713 108.008C63.4962 107.42 63.8513 106.114 63.2645 105.089Z" fill="#FE5B38"/>
</g>
</g>
<g id="Group_21">
<g id="Group_22">
<path id="Vector_11" d="M46.3834 131.223C46.4254 130.043 45.5032 129.053 44.3222 129.01C43.4113 128.978 42.475 128.872 41.5366 128.696L41.3731 128.665C40.215 128.434 39.0885 129.185 38.8573 130.344C38.633 131.467 39.3324 132.559 40.4305 132.836C40.465 132.844 40.5005 132.852 40.5357 132.859L40.7501 132.901C41.8955 133.116 43.0462 133.245 44.1705 133.285C45.3509 133.326 46.3415 132.404 46.3834 131.223Z" fill="#FE5B38"/>
</g>
</g>
<g id="Group_23">
<g id="Group_24">
<path id="Vector_12" d="M65.226 116.114C65.444 114.832 65.5201 113.559 65.4519 112.329C65.3865 111.15 64.377 110.247 63.1981 110.313C62.0188 110.378 61.1161 111.387 61.1813 112.566C61.232 113.477 61.174 114.429 61.0095 115.396C60.8138 116.545 61.6099 117.667 62.7587 117.863C63.9074 118.058 65.0304 117.263 65.226 116.114Z" fill="#FE5B38"/>
</g>
</g>
<g id="Group_25">
<g id="Group_26">
<path id="Vector_13" d="M61.9003 120.102C60.883 119.502 59.5722 119.838 58.9709 120.855C58.4703 121.702 57.8939 122.511 57.258 123.26C56.4935 124.16 56.6039 125.51 57.5045 126.275C58.3931 127.029 59.7648 126.916 60.5186 126.028C61.3113 125.094 62.0294 124.086 62.653 123.031C63.254 122.015 62.9169 120.703 61.9003 120.102Z" fill="#FE5B38"/>
</g>
</g>
<g id="Group_27">
<g id="Group_28">
<path id="Vector_14" d="M58.7923 83.1465C58.5663 81.9869 57.4433 81.2305 56.2842 81.4566C55.1458 81.6782 54.0058 81.9452 52.8964 82.2502C52.0105 82.4934 51.365 83.3031 51.3261 84.2212C51.2833 85.2234 51.9701 86.1422 52.9426 86.3871C53.2886 86.4742 53.6609 86.4758 54.0294 86.3746C55.0354 86.0982 56.0695 85.8559 57.1023 85.6546C58.2617 85.4286 59.0184 84.3057 58.7923 83.1465Z" fill="#FE5B38"/>
</g>
</g>
<g id="Group_29">
<g id="Group_30">
<path id="Vector_15" d="M55.6678 127.811C55.0879 126.782 53.7844 126.417 52.7552 126.997C51.9058 127.475 51.0102 127.875 50.0927 128.186C48.9739 128.565 48.3746 129.779 48.7535 130.898C49.1269 132.001 50.3609 132.611 51.4652 132.237C52.6336 131.841 53.7739 131.332 54.8541 130.723C55.883 130.144 56.2474 128.84 55.6678 127.811Z" fill="#FE5B38"/>
</g>
</g>
<g id="Group_31">
<g id="Group_32">
<path id="Vector_16" d="M67.1531 82.6751C67.136 81.4947 66.1644 80.5517 64.9839 80.5678C64.3869 80.5766 63.7864 80.5956 63.1994 80.6241C62.0807 80.6794 61.1745 81.6256 61.1664 82.7454C61.1577 83.9572 62.1993 84.9551 63.41 84.8961C63.9478 84.8695 64.4977 84.8521 65.0455 84.8442C66.226 84.8271 67.1697 83.856 67.1531 82.6751Z" fill="#FE5B38"/>
</g>
</g>
<g id="Group_33">
<g id="Group_34">
<path id="Vector_17" d="M2.82235 141.309C2.699 140.782 2.58539 140.247 2.48392 139.719C2.26148 138.56 1.14053 137.8 -0.0191293 138.022C-1.17879 138.244 -1.93896 139.365 -1.71631 140.525C-1.6041 141.11 -1.4783 141.701 -1.34214 142.283C-1.07666 143.417 0.0912118 144.143 1.22706 143.878C2.37693 143.609 3.09118 142.459 2.82235 141.309Z" fill="#FE5B38"/>
</g>
</g>
<g id="Group_35">
<g id="Group_36">
<path id="Vector_18" d="M1.81241 133.698C1.7822 132.689 1.79377 131.673 1.84769 130.675C1.91129 129.496 1.00747 128.489 -0.172765 128.425C-1.35196 128.361 -2.3594 129.266 -2.42308 130.445C-2.48347 131.562 -2.49662 132.699 -2.46268 133.826C-2.42778 134.991 -1.42605 135.935 -0.260835 135.899C0.920114 135.864 1.84825 134.878 1.81241 133.698Z" fill="#FE5B38"/>
</g>
</g>
<g id="Group_37">
<g id="Group_38">
<path id="Vector_19" d="M2.09992 119.1C0.976913 118.742 -0.228613 119.359 -0.589453 120.483C-0.846017 121.283 -1.08004 122.1 -1.28473 122.913C-1.47253 123.659 -1.68223 124.378 -1.34465 125.114C-1.07048 125.712 -0.521443 126.164 0.12218 126.308C0.759727 126.454 1.44071 126.295 1.94827 125.883C2.56315 125.383 2.67958 124.686 2.86293 123.957C3.04545 123.232 3.25407 122.503 3.48309 121.789C3.84393 120.665 3.22451 119.461 2.09992 119.1Z" fill="#FE5B38"/>
</g>
</g>
<g id="Group_39">
<g id="Group_40">
<path id="Vector_20" d="M6.62606 110.636C5.62366 110.009 4.30526 110.314 3.67905 111.315C3.08314 112.268 2.52017 113.254 2.00668 114.247C1.46362 115.296 1.87412 116.586 2.92297 117.129C3.95803 117.665 5.26951 117.247 5.80495 116.213C6.26582 115.323 6.77064 114.438 7.30516 113.583C7.93124 112.581 7.62756 111.262 6.62606 110.636Z" fill="#FE5B38"/>
</g>
</g>
<g id="Group_41">
<g id="Group_42">
<path id="Vector_21" d="M21.0149 98.1544C20.4324 97.1265 19.1283 96.7653 18.1 97.3471C17.8369 97.4959 17.5748 97.6489 17.3127 97.805C16.6114 98.2244 15.9087 98.6775 15.2237 99.1521C14.2531 99.8245 14.0109 101.157 14.6832 102.128C15.3464 103.086 16.7013 103.332 17.6588 102.668C18.2656 102.248 18.8877 101.847 19.5071 101.477C19.7396 101.338 19.9733 101.202 20.2074 101.069C21.2356 100.487 21.5966 99.1821 21.0149 98.1544Z" fill="#FE5B38"/>
</g>
</g>
<g id="Group_43">
<g id="Group_44">
<path id="Vector_22" d="M13.0401 103.493C12.2156 102.648 10.8618 102.631 10.016 103.455C9.21558 104.236 8.43555 105.06 7.6971 105.904C6.91978 106.793 7.0107 108.144 7.90021 108.921C8.77855 109.689 10.1511 109.596 10.9175 108.718C11.5811 107.959 12.2824 107.218 13.0018 106.517C13.8477 105.692 13.8646 104.339 13.0401 103.493Z" fill="#FE5B38"/>
</g>
</g>
<g id="Group_45">
<g id="Group_46">
<path id="Vector_23" d="M28.6535 95.408C28.3137 94.2772 27.1213 93.6357 25.9902 93.9753C25.415 94.148 24.836 94.3371 24.2685 94.5372C23.1548 94.9306 22.5703 96.1517 22.9633 97.2655C23.3508 98.364 24.5918 98.9584 25.6916 98.5706C26.1955 98.3929 26.7097 98.2248 27.2208 98.0715C28.3519 97.7316 28.9934 96.5391 28.6535 95.408Z" fill="#FE5B38"/>
</g>
</g>
</g>
<defs>
<clipPath id="clip0_2_365">
<rect width="145.698" height="145.698" fill="white" transform="translate(28.2502 0.677124) rotate(14.132)"/>
</clipPath>
</defs>
</svg>
