<svg width="40" height="40" viewBox="0 0 40 40" fill="none" xmlns="http://www.w3.org/2000/svg">
<g id="reliability 1" clip-path="url(#clip0_2_109)">
<path id="Vector" d="M39.343 19.0756C39.0353 18.757 38.6548 18.537 38.2376 18.4314C38.4851 18.038 38.6093 17.5797 38.5922 17.1027C38.548 15.8572 37.4783 14.8438 36.2079 14.8438H31.5671L31.5625 7.89062C31.5625 6.38306 30.336 5.15625 28.8281 5.15625C27.3202 5.15625 26.0937 6.38306 26.0937 7.89062V9.73083C26.0937 10.2029 25.994 10.6586 25.8102 11.0745C22.3694 10.9454 19.6094 8.1073 19.6094 4.63531V3.78906C19.6094 3.25043 19.1714 2.8125 18.6328 2.8125H8.55468C8.01605 2.8125 7.57812 3.25043 7.57812 3.78906V4.45312C7.57812 8.0072 4.68688 10.8984 1.13281 10.8984H0.976557C0.437922 10.8984 -5.72205e-06 11.3364 -5.72205e-06 11.875V23.5938C-5.72205e-06 31.0895 6.09802 37.1875 13.5937 37.1875C18.9108 37.1875 23.7146 34.1028 25.9363 29.2969H34.1046C34.6378 29.2969 35.159 29.0771 35.5347 28.6945C35.9045 28.3176 36.1032 27.8247 36.0934 27.3065C36.0886 27.0428 36.0303 26.7914 35.9289 26.5625H36.2079C37.4783 26.5625 38.548 25.549 38.5922 24.3036C38.6093 23.8226 38.4833 23.3609 38.2315 22.9654C39.2142 22.7011 39.9618 21.825 39.9985 20.788C40.0214 20.1456 39.7885 19.5374 39.343 19.0756ZM13.5937 36.0156C6.74438 36.0156 1.17187 30.4431 1.17187 23.5938V12.0703C5.354 12.049 8.74999 8.64014 8.74999 4.45312V3.98438H18.4375V4.63531C18.4375 8.48236 21.304 11.6718 25.0131 12.1811C24.8724 12.3093 24.7205 12.4274 24.556 12.532L21.355 14.5688C21.0724 14.7488 20.7461 14.8438 20.4114 14.8438H19.6905C19.472 14.1214 18.8007 13.5938 18.0078 13.5938H14.7266C13.9627 13.5938 13.3115 14.0836 13.0695 14.7656H10.1953C9.35516 14.7656 8.67187 15.4492 8.67187 16.2891V26.3672C8.67187 27.2073 9.35516 27.8906 10.1953 27.8906H12.9687V33.6551C7.70477 33.3505 3.51562 28.9719 3.51562 23.6328V13.9243C7.54028 13.6313 10.7477 10.3464 10.9174 6.28906H12.9687V11.4453C12.9687 11.7691 13.2312 12.0312 13.5547 12.0312C13.8782 12.0312 14.1406 11.7691 14.1406 11.4453V5.70312C14.1406 5.37933 13.8782 5.11719 13.5547 5.11719H10.3384C10.0149 5.11719 9.7525 5.37933 9.7525 5.70312V5.95062C9.7525 9.71283 6.69189 12.7734 2.92968 12.7734C2.6062 12.7734 2.34374 13.0356 2.34374 13.3594V23.6328C2.34374 29.8145 7.37304 34.8438 13.5547 34.8438C13.8782 34.8438 14.1406 34.5816 14.1406 34.2578V29.0024C14.2776 29.0405 14.4214 29.0625 14.5703 29.0625H18.0078C18.5821 29.0625 19.093 28.7857 19.4138 28.3585L20.0388 28.7125C20.7132 29.0948 21.4792 29.2969 22.254 29.2969H24.632C22.5091 33.4061 18.2687 36.0156 13.5937 36.0156ZM12.9687 26.7188H10.1953C10.0015 26.7188 9.84374 26.561 9.84374 26.3672V16.2891C9.84374 16.0953 10.0015 15.9375 10.1953 15.9375H12.9687V26.7188ZM37.6141 21.875H33.0469C32.7234 21.875 32.4609 22.1371 32.4609 22.4609C32.4609 22.7847 32.7234 23.0469 33.0469 23.0469H36.25C36.5707 23.0469 36.8704 23.1741 37.0935 23.4052C37.3163 23.6359 37.4326 23.9404 37.421 24.2621C37.399 24.8843 36.8545 25.3906 36.2079 25.3906H34.1406C34.1275 25.3906 34.1144 25.3918 34.1016 25.3925C34.0887 25.3918 34.0756 25.3906 34.0625 25.3906H33.0469C32.7234 25.3906 32.4609 25.6528 32.4609 25.9766C32.4609 26.3004 32.7234 26.5625 33.0469 26.5625H34.0625C34.0756 26.5625 34.0887 26.5613 34.1016 26.5607C34.1144 26.5613 34.1275 26.5625 34.1406 26.5625C34.5633 26.5625 34.9139 26.9061 34.9219 27.3288C34.9255 27.5296 34.8462 27.7231 34.6985 27.8738C34.5416 28.0334 34.3253 28.125 34.1049 28.125H22.254C21.6812 28.125 21.1151 27.9758 20.6168 27.6932L19.7656 27.2107V25.8853C19.7656 25.5618 19.5032 25.2994 19.1797 25.2994C18.8562 25.2994 18.5937 25.5618 18.5937 25.8853V27.3047C18.5937 27.6279 18.331 27.8906 18.0078 27.8906H14.5703C14.3335 27.8906 14.1406 27.6978 14.1406 27.4609V15.3516C14.1406 15.0284 14.4034 14.7656 14.7266 14.7656H18.0078C18.331 14.7656 18.5937 15.0284 18.5937 15.3516V23.1509C18.5937 23.4747 18.8562 23.7369 19.1797 23.7369C19.5032 23.7369 19.7656 23.4747 19.7656 23.1509V16.0156H20.4114C20.9692 16.0156 21.5134 15.8572 21.9839 15.5576L25.1852 13.5205C26.488 12.6917 27.2656 11.2747 27.2656 9.73083V7.89062C27.2656 7.02911 27.9666 6.32812 28.8281 6.32812C29.6896 6.32812 30.3906 7.02911 30.3906 7.89093L30.3952 15.0397C30.3955 15.5777 30.8337 16.0156 31.3718 16.0156H36.2079C36.8545 16.0156 37.399 16.5219 37.421 17.1442C37.4326 17.4658 37.316 17.7704 37.0935 18.0011C36.8704 18.2321 36.5707 18.3594 36.25 18.3594H33.0469C32.7234 18.3594 32.4609 18.6215 32.4609 18.9453C32.4609 19.2691 32.7234 19.5312 33.0469 19.5312H37.6562C37.977 19.5312 38.2767 19.6585 38.4998 19.8895C38.7225 20.1202 38.8388 20.4248 38.8272 20.7465C38.8052 21.3687 38.2608 21.875 37.6141 21.875Z" fill="#FE5B38"/>
</g>
<defs>
<clipPath id="clip0_2_109">
<rect width="40" height="40" fill="white"/>
</clipPath>
</defs>
</svg>
