<svg width="40" height="40" viewBox="0 0 40 40" fill="none" xmlns="http://www.w3.org/2000/svg">
<g id="tag 1" clip-path="url(#clip0_2_116)">
<path id="Vector" d="M13.3339 23.3338C14.0706 23.3338 14.6672 23.9308 14.6672 24.6671C14.6672 25.0352 14.9657 25.3337 15.3339 25.3337C15.7021 25.3337 16.0005 25.0352 16.0005 24.6671C15.996 23.4549 15.1744 22.3983 14.0006 22.0952V21.3338C14.0006 20.9657 13.7021 20.6672 13.3339 20.6672C12.9658 20.6672 12.6673 20.9657 12.6673 21.3338V22.0952C11.3685 22.4295 10.5215 23.6778 10.6908 25.0082C10.86 26.3386 11.9928 27.3353 13.3339 27.3337C14.0706 27.3337 14.6672 27.9307 14.6672 28.667C14.6672 29.4033 14.0706 30.0003 13.3339 30.0003C12.5976 30.0003 12.0006 29.4033 12.0006 28.667C12.0006 28.2988 11.7021 28.0003 11.334 28.0003C10.9658 28.0003 10.6673 28.2988 10.6673 28.667C10.6719 29.8792 11.4938 30.9358 12.6673 31.2389V32.0002C12.6673 32.3684 12.9658 32.6669 13.3339 32.6669C13.7021 32.6669 14.0006 32.3684 14.0006 32.0002V31.2408C15.3036 30.9098 16.1548 29.6591 15.9852 28.3258C15.8157 26.9922 14.6783 25.9945 13.3339 26.0004C12.5976 26.0004 12.0006 25.4034 12.0006 24.6671C12.0006 23.9308 12.5976 23.3338 13.3339 23.3338Z" fill="#FE5B38"/>
<path id="Vector_2" d="M15.3339 16.6672H11.334C10.9658 16.6672 10.6673 16.9657 10.6673 17.3339C10.6673 17.702 10.9658 18.0005 11.334 18.0005H15.3339C15.702 18.0005 16.0005 17.702 16.0005 17.3339C16.0005 16.9657 15.702 16.6672 15.3339 16.6672Z" fill="#FE5B38"/>
<path id="Vector_3" d="M15.3339 35.3335H11.334C10.9658 35.3335 10.6673 35.632 10.6673 36.0001C10.6673 36.3683 10.9658 36.6668 11.334 36.6668H15.3339C15.702 36.6668 16.0005 36.3683 16.0005 36.0001C16.0005 35.632 15.702 35.3335 15.3339 35.3335Z" fill="#FE5B38"/>
<path id="Vector_4" d="M36.5287 25.6671L26.7418 8.71727C27.344 8.11995 27.8769 7.45623 28.3297 6.7388C29.441 4.93871 29.6395 3.23009 28.8883 1.92901C27.3932 -0.661095 22.6713 -0.640263 18.1385 1.97621C17.5366 2.32874 16.9579 2.71904 16.4055 3.14481L15.8674 2.53414C15.2258 1.8076 14.3033 1.39094 13.3339 1.39029C12.3649 1.39094 11.4424 1.8076 10.8008 2.53414L3.51285 10.7927C2.96794 11.4099 2.66717 12.2051 2.6675 13.0287V34.0002C2.6714 37.3123 5.35526 39.9965 8.66736 40.0001H18.0005C21.3126 39.9965 23.9968 37.3123 24.0003 34.0002V13.0287C23.999 12.3865 23.8138 11.7579 23.4671 11.2172H23.4724C24.2695 10.7563 25.026 10.2286 25.7337 9.6401L35.3741 26.3337C36.6638 28.5658 35.8995 31.4205 33.6668 32.7096L25.5843 37.3761C25.2288 37.5792 24.8477 37.7345 24.4512 37.8374C24.0954 37.9321 23.8835 38.2973 23.9782 38.6531C24.0726 39.0089 24.4378 39.2208 24.7939 39.1261C25.3024 38.9923 25.7913 38.7921 26.2477 38.5307L34.3302 33.8642C37.2015 32.2083 38.1862 28.5378 36.5287 25.6671ZM22.667 34.0002C22.6641 36.5763 20.5766 38.6639 18.0005 38.6668H8.66736C6.09157 38.6639 4.00373 36.5763 4.0008 34.0002V13.0287C4.0008 12.53 4.18276 12.0486 4.51283 11.6746L11.8008 3.41694C12.1888 2.97652 12.747 2.72392 13.3339 2.72359C13.9208 2.72392 14.4794 2.97652 14.8674 3.41694L21.3692 10.7853C19.8829 11.4864 18.2586 11.8468 16.6154 11.8399C16.6457 11.6729 16.6629 11.5037 16.6672 11.3341C16.6652 9.49395 15.174 8.00309 13.3339 8.00082C13.2607 8.00309 13.1884 8.01774 13.1201 8.04411C12.7841 8.00277 12.4716 8.22282 12.3968 8.55289C12.1595 9.464 12.276 10.4311 12.7226 11.2599C13.1656 11.9936 13.8547 12.546 14.6672 12.8181C14.0829 13.3513 13.2382 13.4877 12.5156 13.1661C11.7926 12.8441 11.3291 12.1251 11.334 11.3341C11.334 10.9659 11.0355 10.6674 10.6673 10.6674C10.2992 10.6674 10.0007 10.9659 10.0007 11.3341C9.99903 12.8119 10.9717 14.114 12.3896 14.5313C13.8072 14.9486 15.3303 14.3812 16.1294 13.1381C16.3918 13.1657 16.6555 13.1804 16.9194 13.1814C18.7804 13.125 20.6072 12.6651 22.2732 11.8334C22.5274 12.1804 22.6651 12.5987 22.667 13.0287V34.0002ZM15.3339 11.3341C15.3313 11.4317 15.3215 11.5291 15.3046 11.6254C14.7164 11.4724 14.2069 11.1043 13.8775 10.5932C13.6718 10.2179 13.5836 9.78951 13.624 9.36341C14.6031 9.50697 15.33 10.3445 15.3339 11.3341ZM22.8051 10.0568C22.7387 10.0955 22.6719 10.1287 22.6052 10.1661L17.2918 4.14413C17.7755 3.77728 18.2811 3.44005 18.8051 3.13407C22.5606 0.964844 26.6497 0.719732 27.733 2.60087C28.2284 3.45763 28.037 4.6809 27.1949 6.04416C26.8619 6.57311 26.4781 7.06822 26.0485 7.52199L26.0416 7.50994C25.6305 6.79674 24.9723 6.25834 24.1917 5.99598L21.5811 5.11351C21.2361 5.00837 20.8699 5.19684 20.755 5.53863C20.6397 5.88075 20.8178 6.25216 21.1567 6.37683L23.7673 7.25474C24.2396 7.41392 24.6377 7.73975 24.887 8.17138L25.057 8.46532C24.3574 9.06524 23.6035 9.59844 22.8051 10.0587V10.0568Z" fill="#FE5B38"/>
<path id="Vector_5" d="M25.4232 26.8718C25.6071 27.1904 26.0149 27.2998 26.3336 27.1156L30.9523 24.449C31.1603 24.3308 31.2889 24.1101 31.2896 23.8709C31.2899 23.6316 31.1623 23.4106 30.9549 23.2914C30.7473 23.1723 30.4921 23.1733 30.2857 23.2944L25.667 25.961C25.3483 26.1452 25.2389 26.5528 25.4232 26.8718Z" fill="#FE5B38"/>
<path id="Vector_6" d="M26.267 31.0002C26.4506 31.3193 26.8585 31.4289 27.1775 31.2447L32.9508 27.9114C33.2698 27.7275 33.3792 27.3197 33.1949 27.0007C33.011 26.6817 32.6031 26.5723 32.2841 26.7562L26.5108 30.0895C26.1921 30.2737 26.0828 30.6812 26.267 31.0002Z" fill="#FE5B38"/>
<path id="Vector_7" d="M26.6438 22.9852C26.7607 22.9852 26.8756 22.9543 26.9772 22.8957L29.2863 21.5624C29.4943 21.4442 29.6229 21.2235 29.6236 20.9843C29.6239 20.7453 29.4963 20.524 29.289 20.4049C29.0816 20.2857 28.8261 20.2867 28.6197 20.4078L26.3105 21.7411C26.0491 21.8921 25.9219 22.1994 26 22.4911C26.0781 22.7824 26.3421 22.9852 26.6438 22.9852Z" fill="#FE5B38"/>
</g>
<defs>
<clipPath id="clip0_2_116">
<rect width="40" height="40" fill="white"/>
</clipPath>
</defs>
</svg>
