<svg width="48" height="48" viewBox="0 0 48 48" fill="none" xmlns="http://www.w3.org/2000/svg">
<g id="tour-guide 1" clip-path="url(#clip0_2_101)">
<g id="Group">
<path id="Vector" d="M37.3703 42.1117C37.0779 41.8561 36.6338 41.886 36.3781 42.1782L33.4792 45.4936C33.1722 45.8451 32.746 46.0473 32.2793 46.063C31.8113 46.0797 31.3737 45.9059 31.0436 45.5762L28.8095 43.343V41.8661C28.8095 41.4778 28.4947 41.163 28.1063 41.163C27.7179 41.163 27.4032 41.4778 27.4032 41.8661V43.6306V43.6378V47.2969C27.4032 47.6852 27.7179 48 28.1063 48C28.4947 48 28.8095 47.6852 28.8095 47.2969V45.3313L30.0496 46.5709C30.625 47.1458 31.4124 47.4702 32.2239 47.4702C33.1057 47.4702 33.958 47.0833 34.5381 46.4191L37.4368 43.1039C37.6925 42.8115 37.6626 42.3673 37.3703 42.1117ZM8.16919 41.163C7.78078 41.163 7.46606 41.4778 7.46606 41.8661V47.2969C7.46606 47.6852 7.78078 48 8.16919 48C8.55759 48 8.87231 47.6852 8.87231 47.2969V41.8661C8.87231 41.4778 8.5575 41.163 8.16919 41.163ZM47.1095 11.1471L42.3966 7.31775C42.0706 7.053 41.6327 7.0005 41.2534 7.18106C40.8742 7.36153 40.6386 7.73456 40.6386 8.15456V17.1922C40.6386 17.1935 40.6388 17.1947 40.6388 17.196V28.6003L33.5592 36.6746L31.3164 32.4873C30.246 30.4873 28.2702 29.0738 26.0309 28.7062C25.1075 28.5546 22.9521 28.2022 22.1753 28.0744C21.5948 27.9788 21.1733 27.4829 21.1733 26.895V26.0641C21.7212 25.7186 22.2356 25.3116 22.7048 24.8421C24.3532 23.1926 25.2609 21.0005 25.2609 18.6694V18.3638H25.5319C26.923 18.3701 28.1062 17.1871 28.1062 15.7894C28.1062 15.0478 27.7806 14.3586 27.2524 13.8797C27.6611 13.2967 27.777 12.5305 27.5444 11.8579C27.3436 11.2773 26.9064 10.8013 26.3451 10.5521C26.2713 10.5193 26.1968 10.4878 26.1225 10.4557V5.39437C26.1225 2.41997 23.7025 0 20.7281 0H12.3384C9.36403 0 6.94406 2.41997 6.94406 5.39437V10.4557C6.87 10.4878 6.79575 10.5193 6.72197 10.552C6.1605 10.8013 5.72334 11.2773 5.52253 11.858C5.28694 12.5393 5.40263 13.2937 5.81325 13.8805C5.28553 14.359 4.96031 15.0478 4.96031 15.7894C4.96031 17.1833 6.12994 18.3717 7.53562 18.3638H7.80656V18.6694C7.80656 21.7788 9.44044 24.5132 11.8942 26.0601V27.0384C11.8942 27.5786 11.5275 28.0465 11.003 28.1764L5.16422 29.6164C2.33053 30.3153 0.351562 32.8417 0.351562 35.76V47.2969C0.351562 47.6852 0.666281 48 1.05469 48C1.44309 48 1.75781 47.6852 1.75781 47.2969V35.76C1.75781 33.4902 3.297 31.5253 5.50087 30.9817L10.0236 29.8664C11.4218 32.1088 13.8681 33.4804 16.5335 33.4804C19.2991 33.4804 21.7957 32.0302 23.1685 29.6621L25.8033 30.0938C27.6137 30.3911 29.2112 31.5339 30.0767 33.151L32.3461 37.388C32.5573 37.7832 32.9495 38.0498 33.395 38.1009C33.8412 38.1521 34.2839 37.9811 34.5796 37.6438L39.3951 32.1517L42.4538 35.2116C42.4567 35.2144 42.4598 35.2168 42.4627 35.2196L38.5417 39.704C38.286 39.9963 38.3159 40.4405 38.6082 40.6961C38.8995 40.9508 39.3439 40.9229 39.6004 40.6297L46.0628 33.2388C47.3856 31.7384 47.1536 29.339 45.6049 28.1009C44.5644 27.2692 43.202 27.1106 42.045 27.5769V17.5266L47.1095 13.4117C47.4519 13.1333 47.6484 12.7207 47.6484 12.2793C47.6484 11.838 47.4519 11.4253 47.1095 11.1471ZM26.7 15.7894C26.7 16.4231 26.1661 16.9607 25.5319 16.9575H25.2609V14.8237C25.5278 14.8429 25.7933 14.8136 26.0463 14.7401C26.4391 14.9339 26.7 15.341 26.7 15.7894ZM7.80656 16.9575H7.53562C6.89775 16.9608 6.36656 16.424 6.36656 15.7894C6.36656 15.3413 6.62681 14.935 7.01859 14.7415C7.27162 14.815 7.54134 14.8449 7.80647 14.8254V16.9575H7.80656ZM7.98066 13.3547C7.57781 13.5333 7.11122 13.3585 6.90159 12.9679C6.68072 12.5563 6.86597 12.0268 7.29253 11.8374C11.1567 10.1222 15.4146 9.51694 19.607 10.0874C19.9911 10.1392 20.3461 9.87028 20.3984 9.48553C20.4508 9.10078 20.1813 8.74641 19.7964 8.694C15.9272 8.1675 12.0048 8.58488 8.35022 9.89944V5.39437C8.35022 3.19528 10.1392 1.40625 12.3383 1.40625H20.7281C22.9272 1.40625 24.7163 3.19528 24.7163 5.39437V9.89916C24.178 9.70566 23.6333 9.531 23.0854 9.37687C22.712 9.27187 22.3233 9.48947 22.2181 9.86325C22.1129 10.237 22.3307 10.6253 22.7045 10.7305C23.7489 11.0244 24.7818 11.3968 25.7744 11.8373C26.1974 12.0251 26.3838 12.5551 26.1668 12.965C25.961 13.3538 25.4989 13.5374 25.0862 13.3546C19.8392 11.0311 13.2975 10.9974 7.98066 13.3547ZM9.21281 18.6694V14.363C13.9042 12.4867 19.1636 12.4867 23.8548 14.3632V18.6694C23.8548 20.625 23.0932 22.4642 21.7103 23.8479C20.3386 25.2205 18.4907 25.993 16.5338 25.993C12.497 25.9931 9.21281 22.7077 9.21281 18.6694ZM16.5335 32.0741C14.512 32.0741 12.6451 31.1075 11.474 29.5025C12.6203 29.1464 13.4153 27.9998 13.3003 26.7779C14.3008 27.1786 15.392 27.3994 16.5338 27.3994C17.6596 27.3994 18.752 27.1857 19.7671 26.7809C19.6951 27.9922 20.5298 29.0863 21.669 29.4001C20.5064 31.0693 18.6132 32.0741 16.5335 32.0741ZM44.7265 29.1989C45.6688 29.9521 45.8078 31.4032 45.0041 32.3131L43.3901 34.1589L40.3243 31.0921L41.7526 29.4632C42.5158 28.592 43.8224 28.4763 44.7265 29.1989ZM46.2227 12.3202L42.045 15.7147L42.0447 8.84391L46.2226 12.2385C46.2439 12.2517 46.2444 12.3066 46.2227 12.3202ZM20.4049 18.1368C20.7933 18.1368 21.108 17.822 21.108 17.4337V15.8845C21.108 15.4962 20.7933 15.1814 20.4049 15.1814C20.0165 15.1814 19.7017 15.4962 19.7017 15.8845V17.4337C19.7017 17.8221 20.0166 18.1368 20.4049 18.1368ZM12.6621 15.1815C12.2737 15.1815 11.9589 15.4963 11.9589 15.8846V17.4338C11.9589 17.8221 12.2737 18.1369 12.6621 18.1369C13.0505 18.1369 13.3652 17.8221 13.3652 17.4338V15.8846C13.3652 15.4962 13.0504 15.1815 12.6621 15.1815ZM18.6984 21.6335C18.5117 21.2932 18.0845 21.1685 17.7438 21.3552C17.4798 21.5001 17.0497 21.6704 16.5071 21.6658C15.9863 21.6604 15.5758 21.494 15.3232 21.3552C14.9824 21.1684 14.5553 21.2929 14.3684 21.6334C14.1816 21.9739 14.3062 22.4012 14.6466 22.5881C15.0403 22.8042 15.6802 23.0635 16.4924 23.0721C17.313 23.0806 18.0145 22.8107 18.4202 22.5882C18.7607 22.4014 18.8852 21.974 18.6984 21.6335Z" fill="#FE5B38"/>
</g>
</g>
<defs>
<clipPath id="clip0_2_101">
<rect width="48" height="48" fill="white"/>
</clipPath>
</defs>
</svg>
